<svg fill="#ffffff" height="184px" width="184px" version="1.1" id="Layer_1" xmlns="http://www.w3.org/2000/svg" xmlns:xlink="http://www.w3.org/1999/xlink" viewBox="0 0 512 512" xml:space="preserve" stroke="#ffffff"><g id="SVGRepo_bgCarrier" stroke-width="0"></g><g id="SVGRepo_tracerCarrier" stroke-linecap="round" stroke-linejoin="round"></g><g id="SVGRepo_iconCarrier"> <g> <g> <path d="M233.739,217.043v-39.12c0-22.298-8.683-43.261-24.45-59.027L180.43,90.037c12.09-9.153,19.918-23.652,19.918-39.95 C200.348,22.469,177.879,0,150.261,0H83.478C55.86,0,33.391,22.469,33.391,50.087c0,16.298,7.828,30.798,19.918,39.95 L24.45,118.895C8.683,134.662,0,155.625,0,177.923v39.12c0,13.837,8.9,25.133,18.739,33.391C8.9,258.692,0,269.988,0,283.826 v44.522c0,13.837,8.9,25.133,18.739,33.391C8.9,369.997,0,381.292,0,395.13v66.783C0,489.531,22.469,512,50.087,512h133.565 c27.618,0,50.087-22.469,50.087-50.087V395.13c0-13.839-8.9-25.134-18.739-33.391c9.839-8.259,18.739-19.554,18.739-33.391 v-44.522c0-13.839-8.9-25.134-18.739-33.391C224.839,242.176,233.739,230.881,233.739,217.043z M83.478,33.391h66.783 c9.206,0,16.696,7.49,16.696,16.696s-7.49,16.696-16.696,16.696H83.478c-9.206,0-16.696-7.49-16.696-16.696 S74.272,33.391,83.478,33.391z M200.348,461.913c0,9.206-7.49,16.696-16.696,16.696H50.087c-9.206,0-16.696-7.49-16.696-16.696 v-66.684c0.695-3.455,9.922-11.376,20.517-16.795H179.86c9.788,5.023,19.741,13.052,20.488,16.795V461.913z M200.348,328.249 c-0.696,3.454-9.924,11.376-20.518,16.795H53.881c-9.788-5.023-19.741-13.052-20.49-16.795v-44.324 c0.695-3.455,9.922-11.376,20.517-16.795H179.86c9.788,5.023,19.741,13.052,20.488,16.795V328.249z M200.348,216.944 c-0.696,3.454-9.924,11.376-20.518,16.795H53.912c-10.611-5.429-19.827-13.343-20.521-16.795v-39.021 c0-13.379,5.21-25.956,14.67-35.416l42.332-42.333h52.952l42.332,42.332c9.46,9.46,14.67,22.038,14.67,35.416V216.944z"></path> </g> </g> <g> <g> <path d="M512,217.043v-39.12c0-22.298-8.683-43.261-24.45-59.027l-28.859-28.859c12.09-9.153,19.918-23.652,19.918-39.95 C478.609,22.469,456.14,0,428.522,0h-66.783c-27.618,0-50.087,22.469-50.087,50.087c0,16.298,7.828,30.798,19.918,39.95 l-28.859,28.859c-15.767,15.765-24.45,36.728-24.45,59.027v39.12c0,13.837,8.9,25.133,18.739,33.391 c-9.839,8.258-18.739,19.553-18.739,33.391v44.522c0,13.837,8.9,25.133,18.739,33.391c-9.839,8.258-18.739,19.553-18.739,33.391 v66.783c0,27.618,22.469,50.087,50.087,50.087h133.565C489.531,512,512,489.531,512,461.913V395.13 c0-13.839-8.9-25.134-18.739-33.391C503.1,353.48,512,342.185,512,328.348v-44.522c0-13.839-8.9-25.134-18.739-33.391 C503.1,242.176,512,230.881,512,217.043z M361.739,33.391h66.783c9.206,0,16.696,7.49,16.696,16.696s-7.49,16.696-16.696,16.696 h-66.783c-9.206,0-16.696-7.49-16.696-16.696S352.533,33.391,361.739,33.391z M478.609,461.913c0,9.206-7.49,16.696-16.696,16.696 H328.348c-9.206,0-16.696-7.49-16.696-16.696v-66.684c0.695-3.455,9.922-11.376,20.517-16.795h125.952 c9.788,5.023,19.741,13.052,20.488,16.795V461.913z M478.609,328.249c-0.696,3.454-9.924,11.376-20.519,16.795H332.142 c-9.788-5.023-19.741-13.052-20.49-16.795v-44.324c0.695-3.455,9.922-11.376,20.517-16.795h125.952 c9.788,5.023,19.741,13.052,20.488,16.795V328.249z M478.609,216.944c-0.696,3.454-9.924,11.376-20.519,16.795H332.173 c-10.611-5.429-19.827-13.343-20.521-16.795v-39.022c0-13.379,5.21-25.956,14.67-35.416l42.332-42.332h52.952l42.332,42.332 c9.46,9.46,14.67,22.038,14.67,35.416V216.944z"></path> </g> </g> </g></svg>